# xmcd
#
# Track frame offsets:
#	150
#	24967
#	37900
#	50757
#	77007
#	92759
#	104592
#	125647
#	140725
#	161123
#	171213
#
# Disc length: 2402 seconds
# Revision: 0
# Processed by: cddbd v1.5.2PL0 Copyright (c) Steve Scherf et al.
# Submitted via: dBpowerAMP V12.0
#
DISCID=9309600b
DTITLE=The Peterson Brothers - The Peterson Brothers
DYEAR=2015
DGENRE=Blues
TTITLE0=You're My Woman
TTITLE1=If You Love Me Like You Say
TTITLE2=Hey Baby
TTITLE3=I Wouldn't Treat a Dog (the Way You Treated Me)
TTITLE4=Don't You Lie To Me
TTITLE5=I Gotta Go
TTITLE6=Tell Me Everything
TTITLE7=Come On
TTITLE8=Feelin' Like Home
TTITLE9=Amazing Grace
TTITLE10=I Gotta Go [Swing]
EXTD=
EXTT0=
EXTT1=
EXTT2=
EXTT3=
EXTT4=
EXTT5=
EXTT6=
EXTT7=
EXTT8=
EXTT9=
EXTT10=
PLAYORDER=
